<?xml version="1.0" standalone="no"?>
<!DOCTYPE svg PUBLIC "-//W3C//DTD SVG 20010904//EN"
 "http://www.w3.org/TR/2001/REC-SVG-20010904/DTD/svg10.dtd">
<svg version="1.0" xmlns="http://www.w3.org/2000/svg"
 width="113.000000pt" height="158.000000pt" viewBox="0 0 113.000000 158.000000"
 preserveAspectRatio="xMidYMid meet">

<g transform="translate(0.000000,158.000000) scale(0.100000,-0.100000)"
fill="#000000" stroke="none">
<path d="M480 1260 c-168 -35 -286 -130 -357 -286 -23 -52 -26 -72 -27 -174
-1 -140 16 -200 86 -295 100 -136 289 -215 447 -186 92 17 126 30 199 75 74
45 130 111 175 205 30 63 31 71 31 191 0 120 -1 128 -31 191 -54 113 -127 190
-223 236 -86 41 -217 60 -300 43z m175 -130 c0 -9 -11 -16 -27 -18 -58 -7 -25
-22 46 -22 41 0 82 -3 91 -6 38 -15 45 -56 45 -249 0 -192 -8 -234 -44 -248
-18 -7 -13 -24 21 -79 13 -21 23 -44 23 -52 0 -21 -19 -31 -33 -17 -15 15
-409 15 -424 0 -14 -14 -33 -4 -33 17 0 8 10 31 23 52 34 55 39 72 21 79 -36
14 -44 56 -44 248 0 193 7 234 45 249 9 3 52 6 96 6 46 0 79 4 79 10 0 6 -13
10 -29 10 -27 0 -47 21 -33 34 3 4 45 5 92 4 68 -2 85 -6 85 -18z"/>
<path d="M390 945 l0 -75 175 0 175 0 -1 75 c-1 41 -5 75 -10 75 -5 0 -9 -9
-9 -21 l0 -20 -29 20 c-22 16 -44 21 -96 21 -62 0 -66 -1 -60 -20 8 -25 4 -25
-37 0 -18 11 -50 20 -70 20 l-38 0 0 -75z"/>
<path d="M414 531 c-16 -17 15 -21 152 -21 105 0 155 3 152 11 -3 10 -294 19
-304 10z"/>
</g>
</svg>
